<svg width="156" height="26" viewBox="0 0 156 26" fill="none" xmlns="http://www.w3.org/2000/svg">
<path d="M48.768 19.112C48.032 19.112 47.3707 18.984 46.784 18.728C46.208 18.4613 45.7547 18.0987 45.424 17.64C45.0933 17.1707 44.9227 16.632 44.912 16.024H46.464C46.5173 16.5467 46.7307 16.9893 47.104 17.352C47.488 17.704 48.0427 17.88 48.768 17.88C49.4613 17.88 50.0053 17.7093 50.4 17.368C50.8053 17.016 51.008 16.568 51.008 16.024C51.008 15.5973 50.8907 15.2507 50.656 14.984C50.4213 14.7173 50.128 14.5147 49.776 14.376C49.424 14.2373 48.9493 14.088 48.352 13.928C47.616 13.736 47.024 13.544 46.576 13.352C46.1387 13.16 45.76 12.8613 45.44 12.456C45.1307 12.04 44.976 11.4853 44.976 10.792C44.976 10.184 45.1307 9.64533 45.44 9.176C45.7493 8.70667 46.1813 8.344 46.736 8.088C47.3013 7.832 47.9467 7.704 48.672 7.704C49.7173 7.704 50.5707 7.96533 51.232 8.488C51.904 9.01067 52.2827 9.704 52.368 10.568H50.768C50.7147 10.1413 50.4907 9.768 50.096 9.448C49.7013 9.11733 49.1787 8.952 48.528 8.952C47.92 8.952 47.424 9.112 47.04 9.432C46.656 9.74133 46.464 10.1787 46.464 10.744C46.464 11.1493 46.576 11.48 46.8 11.736C47.0347 11.992 47.3173 12.1893 47.648 12.328C47.9893 12.456 48.464 12.6053 49.072 12.776C49.808 12.9787 50.4 13.1813 50.848 13.384C51.296 13.576 51.68 13.88 52 14.296C52.32 14.7013 52.48 15.256 52.48 15.96C52.48 16.504 52.336 17.016 52.048 17.496C51.76 17.976 51.3333 18.3653 50.768 18.664C50.2027 18.9627 49.536 19.112 48.768 19.112ZM54.0786 14.584C54.0786 13.688 54.26 12.904 54.6226 12.232C54.9853 11.5493 55.4813 11.0213 56.1106 10.648C56.7506 10.2747 57.46 10.088 58.2386 10.088C59.0066 10.088 59.6733 10.2533 60.2386 10.584C60.804 10.9147 61.2253 11.3307 61.5026 11.832V10.232H62.9746V19H61.5026V17.368C61.2146 17.88 60.7826 18.3067 60.2066 18.648C59.6413 18.9787 58.98 19.144 58.2226 19.144C57.444 19.144 56.74 18.952 56.1106 18.568C55.4813 18.184 54.9853 17.6453 54.6226 16.952C54.26 16.2587 54.0786 15.4693 54.0786 14.584ZM61.5026 14.6C61.5026 13.9387 61.3693 13.3627 61.1026 12.872C60.836 12.3813 60.4733 12.008 60.0146 11.752C59.5666 11.4853 59.0706 11.352 58.5266 11.352C57.9826 11.352 57.4866 11.48 57.0386 11.736C56.5906 11.992 56.2333 12.3653 55.9666 12.856C55.7 13.3467 55.5666 13.9227 55.5666 14.584C55.5666 15.256 55.7 15.8427 55.9666 16.344C56.2333 16.8347 56.5906 17.2133 57.0386 17.48C57.4866 17.736 57.9826 17.864 58.5266 17.864C59.0706 17.864 59.5666 17.736 60.0146 17.48C60.4733 17.2133 60.836 16.8347 61.1026 16.344C61.3693 15.8427 61.5026 15.2613 61.5026 14.6ZM69.7071 10.072C70.7738 10.072 71.6378 10.3973 72.2991 11.048C72.9605 11.688 73.2911 12.616 73.2911 13.832V19H71.8511V14.04C71.8511 13.1653 71.6325 12.4987 71.1951 12.04C70.7578 11.5707 70.1605 11.336 69.4031 11.336C68.6351 11.336 68.0218 11.576 67.5631 12.056C67.1151 12.536 66.8911 13.2347 66.8911 14.152V19H65.4351V10.232H66.8911V11.48C67.1791 11.032 67.5685 10.6853 68.0591 10.44C68.5605 10.1947 69.1098 10.072 69.7071 10.072ZM86.2391 7.848V9.032H81.3911V12.792H85.3271V13.976H81.3911V19H79.9351V7.848H86.2391ZM89.4536 11.656C89.7096 11.1547 90.0723 10.7653 90.5416 10.488C91.0216 10.2107 91.603 10.072 92.2856 10.072V11.576H91.9016C90.2696 11.576 89.4536 12.4613 89.4536 14.232V19H87.9976V10.232H89.4536V11.656ZM93.4224 14.584C93.4224 13.688 93.6037 12.904 93.9664 12.232C94.329 11.5493 94.825 11.0213 95.4544 10.648C96.0944 10.2747 96.8037 10.088 97.5824 10.088C98.3504 10.088 99.017 10.2533 99.5824 10.584C100.148 10.9147 100.569 11.3307 100.846 11.832V10.232H102.318V19H100.846V17.368C100.558 17.88 100.126 18.3067 99.5504 18.648C98.985 18.9787 98.3237 19.144 97.5664 19.144C96.7877 19.144 96.0837 18.952 95.4544 18.568C94.825 18.184 94.329 17.6453 93.9664 16.952C93.6037 16.2587 93.4224 15.4693 93.4224 14.584ZM100.846 14.6C100.846 13.9387 100.713 13.3627 100.446 12.872C100.18 12.3813 99.817 12.008 99.3584 11.752C98.9104 11.4853 98.4144 11.352 97.8704 11.352C97.3264 11.352 96.8304 11.48 96.3824 11.736C95.9344 11.992 95.577 12.3653 95.3104 12.856C95.0437 13.3467 94.9104 13.9227 94.9104 14.584C94.9104 15.256 95.0437 15.8427 95.3104 16.344C95.577 16.8347 95.9344 17.2133 96.3824 17.48C96.8304 17.736 97.3264 17.864 97.8704 17.864C98.4144 17.864 98.9104 17.736 99.3584 17.48C99.817 17.2133 100.18 16.8347 100.446 16.344C100.713 15.8427 100.846 15.2613 100.846 14.6ZM109.051 10.072C110.118 10.072 110.982 10.3973 111.643 11.048C112.304 11.688 112.635 12.616 112.635 13.832V19H111.195V14.04C111.195 13.1653 110.976 12.4987 110.539 12.04C110.102 11.5707 109.504 11.336 108.747 11.336C107.979 11.336 107.366 11.576 106.907 12.056C106.459 12.536 106.235 13.2347 106.235 14.152V19H104.779V10.232H106.235V11.48C106.523 11.032 106.912 10.6853 107.403 10.44C107.904 10.1947 108.454 10.072 109.051 10.072ZM114.469 14.6C114.469 13.6933 114.651 12.904 115.013 12.232C115.376 11.5493 115.877 11.0213 116.517 10.648C117.168 10.2747 117.909 10.088 118.741 10.088C119.819 10.088 120.704 10.3493 121.397 10.872C122.101 11.3947 122.565 12.12 122.789 13.048H121.221C121.072 12.5147 120.779 12.0933 120.341 11.784C119.915 11.4747 119.381 11.32 118.741 11.32C117.909 11.32 117.237 11.608 116.725 12.184C116.213 12.7493 115.957 13.5547 115.957 14.6C115.957 15.656 116.213 16.472 116.725 17.048C117.237 17.624 117.909 17.912 118.741 17.912C119.381 17.912 119.915 17.7627 120.341 17.464C120.768 17.1653 121.061 16.7387 121.221 16.184H122.789C122.555 17.08 122.085 17.8 121.381 18.344C120.677 18.8773 119.797 19.144 118.741 19.144C117.909 19.144 117.168 18.9573 116.517 18.584C115.877 18.2107 115.376 17.6827 115.013 17C114.651 16.3173 114.469 15.5173 114.469 14.6ZM125.484 8.808C125.207 8.808 124.972 8.712 124.78 8.52C124.588 8.328 124.492 8.09333 124.492 7.816C124.492 7.53867 124.588 7.304 124.78 7.112C124.972 6.92 125.207 6.824 125.484 6.824C125.751 6.824 125.975 6.92 126.156 7.112C126.348 7.304 126.444 7.53867 126.444 7.816C126.444 8.09333 126.348 8.328 126.156 8.52C125.975 8.712 125.751 8.808 125.484 8.808ZM126.188 10.232V19H124.732V10.232H126.188ZM131.774 19.144C131.102 19.144 130.499 19.032 129.966 18.808C129.432 18.5733 129.011 18.2533 128.702 17.848C128.392 17.432 128.222 16.9573 128.19 16.424H129.694C129.736 16.8613 129.939 17.2187 130.302 17.496C130.675 17.7733 131.16 17.912 131.758 17.912C132.312 17.912 132.75 17.7893 133.07 17.544C133.39 17.2987 133.55 16.9893 133.55 16.616C133.55 16.232 133.379 15.9493 133.038 15.768C132.696 15.576 132.168 15.3893 131.454 15.208C130.803 15.0373 130.27 14.8667 129.854 14.696C129.448 14.5147 129.096 14.2533 128.798 13.912C128.51 13.56 128.366 13.1013 128.366 12.536C128.366 12.088 128.499 11.6773 128.766 11.304C129.032 10.9307 129.411 10.6373 129.902 10.424C130.392 10.2 130.952 10.088 131.582 10.088C132.552 10.088 133.336 10.3333 133.934 10.824C134.531 11.3147 134.851 11.9867 134.894 12.84H133.438C133.406 12.3813 133.219 12.0133 132.878 11.736C132.547 11.4587 132.099 11.32 131.534 11.32C131.011 11.32 130.595 11.432 130.286 11.656C129.976 11.88 129.822 12.1733 129.822 12.536C129.822 12.824 129.912 13.064 130.094 13.256C130.286 13.4373 130.52 13.5867 130.798 13.704C131.086 13.8107 131.48 13.9333 131.982 14.072C132.611 14.2427 133.123 14.4133 133.518 14.584C133.912 14.744 134.248 14.9893 134.526 15.32C134.814 15.6507 134.963 16.0827 134.974 16.616C134.974 17.096 134.84 17.528 134.574 17.912C134.307 18.296 133.928 18.6 133.438 18.824C132.958 19.0373 132.403 19.144 131.774 19.144ZM136.485 14.6C136.485 13.6933 136.666 12.904 137.029 12.232C137.392 11.5493 137.893 11.0213 138.533 10.648C139.184 10.2747 139.925 10.088 140.757 10.088C141.834 10.088 142.72 10.3493 143.413 10.872C144.117 11.3947 144.581 12.12 144.805 13.048H143.237C143.088 12.5147 142.794 12.0933 142.357 11.784C141.93 11.4747 141.397 11.32 140.757 11.32C139.925 11.32 139.253 11.608 138.741 12.184C138.229 12.7493 137.973 13.5547 137.973 14.6C137.973 15.656 138.229 16.472 138.741 17.048C139.253 17.624 139.925 17.912 140.757 17.912C141.397 17.912 141.93 17.7627 142.357 17.464C142.784 17.1653 143.077 16.7387 143.237 16.184H144.805C144.57 17.08 144.101 17.8 143.397 18.344C142.693 18.8773 141.813 19.144 140.757 19.144C139.925 19.144 139.184 18.9573 138.533 18.584C137.893 18.2107 137.392 17.6827 137.029 17C136.666 16.3173 136.485 15.5173 136.485 14.6ZM150.572 19.144C149.75 19.144 149.004 18.9573 148.332 18.584C147.67 18.2107 147.148 17.6827 146.764 17C146.39 16.3067 146.204 15.5067 146.204 14.6C146.204 13.704 146.396 12.9147 146.78 12.232C147.174 11.5387 147.708 11.0107 148.38 10.648C149.052 10.2747 149.804 10.088 150.636 10.088C151.468 10.088 152.22 10.2747 152.892 10.648C153.564 11.0107 154.092 11.5333 154.476 12.216C154.87 12.8987 155.068 13.6933 155.068 14.6C155.068 15.5067 154.865 16.3067 154.46 17C154.065 17.6827 153.526 18.2107 152.844 18.584C152.161 18.9573 151.404 19.144 150.572 19.144ZM150.572 17.864C151.094 17.864 151.585 17.7413 152.044 17.496C152.502 17.2507 152.87 16.8827 153.148 16.392C153.436 15.9013 153.58 15.304 153.58 14.6C153.58 13.896 153.441 13.2987 153.164 12.808C152.886 12.3173 152.524 11.9547 152.076 11.72C151.628 11.4747 151.142 11.352 150.62 11.352C150.086 11.352 149.596 11.4747 149.148 11.72C148.71 11.9547 148.358 12.3173 148.092 12.808C147.825 13.2987 147.692 13.896 147.692 14.6C147.692 15.3147 147.82 15.9173 148.076 16.408C148.342 16.8987 148.694 17.2667 149.132 17.512C149.569 17.7467 150.049 17.864 150.572 17.864Z" fill="#666666"/>
<path d="M11.9999 14.4299C13.723 14.4299 15.1199 13.0331 15.1199 11.3099C15.1199 9.58681 13.723 8.18994 11.9999 8.18994C10.2768 8.18994 8.87988 9.58681 8.87988 11.3099C8.87988 13.0331 10.2768 14.4299 11.9999 14.4299Z" stroke="#666666" stroke-width="1.5"/>
<path d="M3.6202 9.49C5.5902 0.830002 18.4202 0.840003 20.3802 9.5C21.5302 14.58 18.3702 18.88 15.6002 21.54C13.5902 23.48 10.4102 23.48 8.3902 21.54C5.6302 18.88 2.4702 14.57 3.6202 9.49Z" stroke="#666666" stroke-width="1.5"/>
</svg>
