<svg width="220" height="26" viewBox="0 0 220 26" fill="none" xmlns="http://www.w3.org/2000/svg">
<path d="M17 21.5H7C4 21.5 2 20 2 16.5V9.5C2 6 4 4.5 7 4.5H17C20 4.5 22 6 22 9.5V16.5C22 20 20 21.5 17 21.5Z" stroke="#666666" stroke-width="1.5" stroke-miterlimit="10" stroke-linecap="round" stroke-linejoin="round"/>
<path d="M17 10L13.87 12.5C12.84 13.32 11.15 13.32 10.12 12.5L7 10" stroke="#666666" stroke-width="1.5" stroke-miterlimit="10" stroke-linecap="round" stroke-linejoin="round"/>
<path d="M46.688 9.032V12.76H50.752V13.96H46.688V17.8H51.232V19H45.232V7.832H51.232V9.032H46.688ZM57.7071 10.072C58.7738 10.072 59.6378 10.3973 60.2991 11.048C60.9605 11.688 61.2911 12.616 61.2911 13.832V19H59.8511V14.04C59.8511 13.1653 59.6325 12.4987 59.1951 12.04C58.7578 11.5707 58.1605 11.336 57.4031 11.336C56.6351 11.336 56.0218 11.576 55.5631 12.056C55.1151 12.536 54.8911 13.2347 54.8911 14.152V19H53.4351V10.232H54.8911V11.48C55.1791 11.032 55.5685 10.6853 56.0591 10.44C56.5605 10.1947 57.1098 10.072 57.7071 10.072ZM63.1255 14.584C63.1255 13.688 63.3068 12.904 63.6695 12.232C64.0322 11.5493 64.5282 11.0213 65.1575 10.648C65.7975 10.2747 66.5122 10.088 67.3015 10.088C68.0588 10.088 68.7202 10.2587 69.2855 10.6C69.8615 10.9307 70.2828 11.3413 70.5495 11.832V10.232H72.0215V23.16H70.5495V17.384C70.2722 17.8747 69.8455 18.2907 69.2695 18.632C68.6935 18.9733 68.0215 19.144 67.2535 19.144C66.4855 19.144 65.7868 18.952 65.1575 18.568C64.5282 18.184 64.0322 17.6453 63.6695 16.952C63.3068 16.2587 63.1255 15.4693 63.1255 14.584ZM70.5495 14.6C70.5495 13.9387 70.4162 13.3627 70.1495 12.872C69.8828 12.3813 69.5202 12.008 69.0615 11.752C68.6135 11.4853 68.1175 11.352 67.5735 11.352C67.0295 11.352 66.5335 11.48 66.0855 11.736C65.6375 11.992 65.2802 12.3653 65.0135 12.856C64.7468 13.3467 64.6135 13.9227 64.6135 14.584C64.6135 15.256 64.7468 15.8427 65.0135 16.344C65.2802 16.8347 65.6375 17.2133 66.0855 17.48C66.5335 17.736 67.0295 17.864 67.5735 17.864C68.1175 17.864 68.6135 17.736 69.0615 17.48C69.5202 17.2133 69.8828 16.8347 70.1495 16.344C70.4162 15.8427 70.5495 15.2613 70.5495 14.6ZM82.258 10.232V19H80.802V17.704C80.5247 18.152 80.1353 18.504 79.634 18.76C79.1433 19.0053 78.5993 19.128 78.002 19.128C77.3193 19.128 76.706 18.9893 76.162 18.712C75.618 18.424 75.186 17.9973 74.866 17.432C74.5567 16.8667 74.402 16.1787 74.402 15.368V10.232H75.842V15.176C75.842 16.04 76.0607 16.7067 76.498 17.176C76.9353 17.6347 77.5327 17.864 78.29 17.864C79.0687 17.864 79.682 17.624 80.13 17.144C80.578 16.664 80.802 15.9653 80.802 15.048V10.232H82.258ZM85.4684 8.808C85.191 8.808 84.9564 8.712 84.7644 8.52C84.5724 8.328 84.4764 8.09333 84.4764 7.816C84.4764 7.53867 84.5724 7.304 84.7644 7.112C84.9564 6.92 85.191 6.824 85.4684 6.824C85.735 6.824 85.959 6.92 86.1404 7.112C86.3324 7.304 86.4284 7.53867 86.4284 7.816C86.4284 8.09333 86.3324 8.328 86.1404 8.52C85.959 8.712 85.735 8.808 85.4684 8.808ZM86.1724 10.232V19H84.7164V10.232H86.1724ZM90.1099 11.656C90.3659 11.1547 90.7285 10.7653 91.1979 10.488C91.6779 10.2107 92.2592 10.072 92.9419 10.072V11.576H92.5579C90.9259 11.576 90.1099 12.4613 90.1099 14.232V19H88.6539V10.232H90.1099V11.656ZM102.175 10.232L96.8946 23.128H95.3906L97.1186 18.904L93.5826 10.232H95.1986L97.9506 17.336L100.671 10.232H102.175ZM111.638 8.744C112.822 8.744 113.852 8.968 114.726 9.416C115.601 9.864 116.273 10.4933 116.742 11.304C117.212 12.104 117.446 13.032 117.446 14.088C117.446 14.9307 117.308 15.7413 117.03 16.52C116.753 17.288 116.348 17.912 115.814 18.392C115.292 18.872 114.678 19.112 113.974 19.112C113.441 19.112 113.03 18.9787 112.742 18.712C112.454 18.4453 112.289 18.0827 112.246 17.624C111.916 18.0827 111.494 18.4453 110.982 18.712C110.481 18.9787 109.948 19.112 109.382 19.112C108.572 19.112 107.932 18.8667 107.462 18.376C107.004 17.8747 106.774 17.2027 106.774 16.36C106.774 15.56 106.94 14.8133 107.27 14.12C107.612 13.4267 108.081 12.872 108.678 12.456C109.276 12.0293 109.953 11.816 110.71 11.816C111.724 11.816 112.406 12.2 112.758 12.968L112.934 11.976H114.198L113.398 16.6C113.366 16.8027 113.35 16.9893 113.35 17.16C113.35 17.8 113.633 18.12 114.198 18.12C114.625 18.12 114.993 17.9173 115.302 17.512C115.622 17.1067 115.862 16.6 116.022 15.992C116.182 15.3733 116.262 14.7653 116.262 14.168C116.262 12.7707 115.841 11.688 114.998 10.92C114.166 10.152 112.988 9.768 111.462 9.768C110.193 9.768 109.046 10.0773 108.022 10.696C107.009 11.304 106.214 12.1413 105.638 13.208C105.062 14.2747 104.774 15.4533 104.774 16.744C104.764 18.152 105.185 19.2347 106.038 19.992C106.892 20.76 108.076 21.144 109.59 21.144C110.593 21.144 111.478 20.9627 112.246 20.6L112.438 21.592C111.489 21.9867 110.444 22.184 109.302 22.184C108.161 22.184 107.153 21.9653 106.278 21.528C105.414 21.1013 104.742 20.4827 104.262 19.672C103.793 18.872 103.558 17.9387 103.558 16.872C103.558 15.368 103.905 13.9973 104.598 12.76C105.292 11.512 106.252 10.5307 107.478 9.816C108.716 9.10133 110.102 8.744 111.638 8.744ZM109.814 17.976C110.294 17.976 110.737 17.8373 111.142 17.56C111.548 17.272 111.868 16.888 112.102 16.408C112.337 15.9173 112.454 15.384 112.454 14.808C112.454 14.2533 112.3 13.8053 111.99 13.464C111.692 13.112 111.265 12.936 110.71 12.936C110.198 12.936 109.745 13.0907 109.35 13.4C108.966 13.6987 108.668 14.0987 108.454 14.6C108.241 15.0907 108.134 15.6027 108.134 16.136C108.134 16.7013 108.278 17.1493 108.566 17.48C108.854 17.8107 109.27 17.976 109.814 17.976ZM125.713 19L123.057 14.44H121.297V19H119.841V7.848H123.441C124.284 7.848 124.993 7.992 125.569 8.28C126.156 8.568 126.593 8.95733 126.881 9.448C127.169 9.93867 127.313 10.4987 127.313 11.128C127.313 11.896 127.089 12.5733 126.641 13.16C126.204 13.7467 125.543 14.136 124.657 14.328L127.457 19H125.713ZM121.297 13.272H123.441C124.231 13.272 124.823 13.08 125.217 12.696C125.612 12.3013 125.809 11.7787 125.809 11.128C125.809 10.4667 125.612 9.95467 125.217 9.592C124.833 9.22933 124.241 9.048 123.441 9.048H121.297V13.272ZM133.928 10.072C134.589 10.072 135.186 10.216 135.72 10.504C136.253 10.7813 136.669 11.2027 136.968 11.768C137.277 12.3333 137.432 13.0213 137.432 13.832V19H135.992V14.04C135.992 13.1653 135.773 12.4987 135.336 12.04C134.898 11.5707 134.301 11.336 133.544 11.336C132.776 11.336 132.162 11.576 131.704 12.056C131.256 12.536 131.032 13.2347 131.032 14.152V19H129.576V7.16H131.032V11.48C131.32 11.032 131.714 10.6853 132.216 10.44C132.728 10.1947 133.298 10.072 133.928 10.072ZM147.362 10.232L142.082 23.128H140.578L142.306 18.904L138.77 10.232H140.386L143.138 17.336L145.858 10.232H147.362ZM150.602 11.432V16.6C150.602 17.0267 150.692 17.3307 150.874 17.512C151.055 17.6827 151.37 17.768 151.818 17.768H152.89V19H151.578C150.767 19 150.159 18.8133 149.754 18.44C149.348 18.0667 149.146 17.4533 149.146 16.6V11.432H148.01V10.232H149.146V8.024H150.602V10.232H152.89V11.432H150.602ZM159.006 10.072C159.667 10.072 160.265 10.216 160.798 10.504C161.331 10.7813 161.747 11.2027 162.046 11.768C162.355 12.3333 162.51 13.0213 162.51 13.832V19H161.07V14.04C161.07 13.1653 160.851 12.4987 160.414 12.04C159.977 11.5707 159.379 11.336 158.622 11.336C157.854 11.336 157.241 11.576 156.782 12.056C156.334 12.536 156.11 13.2347 156.11 14.152V19H154.654V7.16H156.11V11.48C156.398 11.032 156.793 10.6853 157.294 10.44C157.806 10.1947 158.377 10.072 159.006 10.072ZM175.432 10.072C176.115 10.072 176.723 10.216 177.256 10.504C177.79 10.7813 178.211 11.2027 178.52 11.768C178.83 12.3333 178.984 13.0213 178.984 13.832V19H177.544V14.04C177.544 13.1653 177.326 12.4987 176.888 12.04C176.462 11.5707 175.88 11.336 175.144 11.336C174.387 11.336 173.784 11.5813 173.336 12.072C172.888 12.552 172.664 13.2507 172.664 14.168V19H171.224V14.04C171.224 13.1653 171.006 12.4987 170.568 12.04C170.142 11.5707 169.56 11.336 168.824 11.336C168.067 11.336 167.464 11.5813 167.016 12.072C166.568 12.552 166.344 13.2507 166.344 14.168V19H164.888V10.232H166.344V11.496C166.632 11.0373 167.016 10.6853 167.496 10.44C167.987 10.1947 168.526 10.072 169.112 10.072C169.848 10.072 170.499 10.2373 171.064 10.568C171.63 10.8987 172.051 11.384 172.328 12.024C172.574 11.4053 172.979 10.9253 173.544 10.584C174.11 10.2427 174.739 10.072 175.432 10.072ZM181.837 19.096C181.559 19.096 181.325 19 181.133 18.808C180.941 18.616 180.845 18.3813 180.845 18.104C180.845 17.8267 180.941 17.592 181.133 17.4C181.325 17.208 181.559 17.112 181.837 17.112C182.103 17.112 182.327 17.208 182.509 17.4C182.701 17.592 182.797 17.8267 182.797 18.104C182.797 18.3813 182.701 18.616 182.509 18.808C182.327 19 182.103 19.096 181.837 19.096ZM184.188 14.6C184.188 13.6933 184.369 12.904 184.732 12.232C185.095 11.5493 185.596 11.0213 186.236 10.648C186.887 10.2747 187.628 10.088 188.46 10.088C189.537 10.088 190.423 10.3493 191.116 10.872C191.82 11.3947 192.284 12.12 192.508 13.048H190.94C190.791 12.5147 190.497 12.0933 190.06 11.784C189.633 11.4747 189.1 11.32 188.46 11.32C187.628 11.32 186.956 11.608 186.444 12.184C185.932 12.7493 185.676 13.5547 185.676 14.6C185.676 15.656 185.932 16.472 186.444 17.048C186.956 17.624 187.628 17.912 188.46 17.912C189.1 17.912 189.633 17.7627 190.06 17.464C190.487 17.1653 190.78 16.7387 190.94 16.184H192.508C192.273 17.08 191.804 17.8 191.1 18.344C190.396 18.8773 189.516 19.144 188.46 19.144C187.628 19.144 186.887 18.9573 186.236 18.584C185.596 18.2107 185.095 17.6827 184.732 17C184.369 16.3173 184.188 15.5173 184.188 14.6ZM198.275 19.144C197.453 19.144 196.707 18.9573 196.035 18.584C195.373 18.2107 194.851 17.6827 194.467 17C194.093 16.3067 193.907 15.5067 193.907 14.6C193.907 13.704 194.099 12.9147 194.483 12.232C194.877 11.5387 195.411 11.0107 196.083 10.648C196.755 10.2747 197.507 10.088 198.339 10.088C199.171 10.088 199.923 10.2747 200.595 10.648C201.267 11.0107 201.795 11.5333 202.179 12.216C202.573 12.8987 202.771 13.6933 202.771 14.6C202.771 15.5067 202.568 16.3067 202.163 17C201.768 17.6827 201.229 18.2107 200.547 18.584C199.864 18.9573 199.107 19.144 198.275 19.144ZM198.275 17.864C198.797 17.864 199.288 17.7413 199.747 17.496C200.205 17.2507 200.573 16.8827 200.851 16.392C201.139 15.9013 201.283 15.304 201.283 14.6C201.283 13.896 201.144 13.2987 200.867 12.808C200.589 12.3173 200.227 11.9547 199.779 11.72C199.331 11.4747 198.845 11.352 198.323 11.352C197.789 11.352 197.299 11.4747 196.851 11.72C196.413 11.9547 196.061 12.3173 195.795 12.808C195.528 13.2987 195.395 13.896 195.395 14.6C195.395 15.3147 195.523 15.9173 195.779 16.408C196.045 16.8987 196.397 17.2667 196.835 17.512C197.272 17.7467 197.752 17.864 198.275 17.864ZM215.229 10.072C215.912 10.072 216.52 10.216 217.053 10.504C217.586 10.7813 218.008 11.2027 218.317 11.768C218.626 12.3333 218.781 13.0213 218.781 13.832V19H217.341V14.04C217.341 13.1653 217.122 12.4987 216.685 12.04C216.258 11.5707 215.677 11.336 214.941 11.336C214.184 11.336 213.581 11.5813 213.133 12.072C212.685 12.552 212.461 13.2507 212.461 14.168V19H211.021V14.04C211.021 13.1653 210.802 12.4987 210.365 12.04C209.938 11.5707 209.357 11.336 208.621 11.336C207.864 11.336 207.261 11.5813 206.813 12.072C206.365 12.552 206.141 13.2507 206.141 14.168V19H204.685V10.232H206.141V11.496C206.429 11.0373 206.813 10.6853 207.293 10.44C207.784 10.1947 208.322 10.072 208.909 10.072C209.645 10.072 210.296 10.2373 210.861 10.568C211.426 10.8987 211.848 11.384 212.125 12.024C212.37 11.4053 212.776 10.9253 213.341 10.584C213.906 10.2427 214.536 10.072 215.229 10.072Z" fill="#666666"/>
</svg>
